HIERARCHY
ROOT joint_0
{
	OFFSET -212.520721 120.562408 434.227997
	CHANNELS 6 Xposition Yposition Zposition Zrotation Yrotation Xrotation 
	JOINT joint_1
	{
		OFFSET 2.474272 -32.128098 -0.738785
		CHANNELS 3 Zrotation Yrotation Xrotation
		JOINT joint_2
		{
			OFFSET 0.103459 1.857837 10.548508
			CHANNELS 3 Zrotation Yrotation Xrotation
			JOINT joint_3
			{
				OFFSET 43.500008 -0.000038 0.000008
				CHANNELS 3 Zrotation Yrotation Xrotation
				JOINT joint_4
				{
					OFFSET 42.372196 0.000023 -0.000010
					CHANNELS 3 Zrotation Yrotation Xrotation
					JOINT joint_5
					{
						OFFSET 17.300007 0.000003 -0.000004
						CHANNELS 3 Zrotation Yrotation Xrotation
						End Site
						{
							OFFSET 0.000000 0.000000 0.000000
						}
					}
				}
			}
		}
		JOINT joint_6
		{
			OFFSET 0.103459 1.857834 -10.548512
			CHANNELS 3 Zrotation Yrotation Xrotation
			JOINT joint_7
			{
				OFFSET 43.500050 -0.000034 0.000002
				CHANNELS 3 Zrotation Yrotation Xrotation
				JOINT joint_8
				{
					OFFSET 42.372257 0.000015 0.000013
					CHANNELS 3 Zrotation Yrotation Xrotation
					JOINT joint_9
					{
						OFFSET 17.299990 -0.000006 0.000004
						CHANNELS 3 Zrotation Yrotation Xrotation
						End Site
						{
							OFFSET 0.000000 0.000000 0.000000
						}
					}
				}
			}
		}
		JOINT joint_10
		{
			OFFSET 6.901970 -2.603734 0.000004
			CHANNELS 3 Zrotation Yrotation Xrotation
			JOINT joint_11
			{
				OFFSET 12.588094 0.000009 0.000000
				CHANNELS 3 Zrotation Yrotation Xrotation
				JOINT joint_12
				{
					OFFSET 12.343201 -0.000005 -0.000001
					CHANNELS 3 Zrotation Yrotation Xrotation
					JOINT joint_13
					{
						OFFSET 25.832907 0.000011 0.000002
						CHANNELS 3 Zrotation Yrotation Xrotation
						JOINT joint_14
						{
							OFFSET 11.766597 0.000002 0.000004
							CHANNELS 3 Zrotation Yrotation Xrotation
							End Site
							{
								OFFSET 0.000000 0.000000 0.000000
							}
						}
					}
					JOINT joint_15
					{
						OFFSET 19.745907 -1.480370 6.000103
						CHANNELS 3 Zrotation Yrotation Xrotation
						JOINT joint_16
						{
							OFFSET 11.284124 -0.000017 -0.000018
							CHANNELS 3 Zrotation Yrotation Xrotation
							JOINT joint_17
							{
								OFFSET 33.000053 0.000005 0.000034
								CHANNELS 3 Zrotation Yrotation Xrotation
								JOINT joint_18
								{
									OFFSET 25.200001 0.000028 -0.000003
									CHANNELS 3 Zrotation Yrotation Xrotation
									End Site
									{
										OFFSET 0.000000 0.000000 0.000000
									}
								}
							}
						}
					}
					JOINT joint_19
					{
						OFFSET 19.746109 -1.480360 -6.000067
						CHANNELS 3 Zrotation Yrotation Xrotation
						JOINT joint_20
						{
							OFFSET 11.284139 0.000001 0.000006
							CHANNELS 3 Zrotation Yrotation Xrotation
							JOINT joint_21
							{
								OFFSET 33.000118 0.000020 0.000005
								CHANNELS 3 Zrotation Yrotation Xrotation
								JOINT joint_22
								{
									OFFSET 25.199759 0.000119 0.000422
									CHANNELS 3 Zrotation Yrotation Xrotation
									End Site
									{
										OFFSET 0.000000 0.000000 0.000000
									}
								}
							}
						}
					}
				}
			}
		}
	}
}
MOTION
Frames: 13
Frame Time: 0.016667
-212.520721 120.562408 434.227997 0.000000 -8.332734 0.000000 91.144104 0.237408 95.264038 176.188293 4.168000 179.747223 -0.605241 -1.195933 -23.159924 -0.750798 0.364510 92.972580 0.000000 0.003086 21.454554 177.665131 3.582905 147.970306 6.795271 -6.580884 -56.841827 9.732169 -2.827847 87.350960 -0.000017 -0.003095 21.454557 -0.561749 -0.545234 6.812724 -1.140071 -1.072933 3.618105 -1.133570 -1.079663 3.300008 13.644563 -2.289024 10.272582 14.791988 -13.465465 6.759229 -11.196170 -74.296745 -170.431213 11.283331 46.024063 -50.992817 1.693315 -11.943920 -54.441864 46.292751 -2.723810 5.996136 17.562342 74.754066 -164.218063 -38.822781 -55.197037 3.451645 -1.521148 16.366396 -37.926903 -14.671494 3.629426 7.227557 
-212.770386 120.117096 435.103271 0.000000 -8.911525 0.000000 90.834511 0.320852 95.068863 176.151794 3.970639 -179.282166 -1.051564 -1.243420 -22.668095 -0.919533 0.642532 93.298340 0.000002 0.003095 21.454548 177.348190 3.149706 147.609207 7.306620 -6.385998 -54.667419 9.414119 -3.238215 87.211975 -0.000017 -0.003109 21.454554 -0.628283 -0.479811 6.815209 -1.271117 -0.940049 3.622937 -1.265413 -0.947564 3.304862 13.531276 -3.407183 10.453925 14.146789 -12.838034 7.315396 -12.065845 -74.333351 -169.583847 9.629669 45.781639 -51.548096 1.764988 -11.751200 -56.883892 46.638588 -2.991595 5.711256 17.456617 74.840607 -164.320724 -39.965630 -56.262905 4.087285 -1.438820 15.814176 -36.019501 -12.954500 4.137981 7.587497 
-213.052582 119.725975 435.985626 0.000000 -9.466508 0.000000 90.520042 0.347631 94.890129 176.170227 3.777223 -178.386887 -1.535042 -1.327154 -22.237387 -1.075860 0.947326 93.654808 0.000001 0.003094 21.454550 176.964874 2.720465 147.307846 7.853300 -6.192128 -52.267601 9.203450 -3.662229 87.123604 -0.000017 -0.003108 21.454554 -0.701492 -0.424533 6.807305 -1.415731 -0.827343 3.606994 -1.410704 -0.835735 3.288953 13.373248 -4.339553 10.557370 13.536585 -12.281837 7.843905 -12.784600 -74.443535 -168.883530 8.124514 45.531212 -51.926281 1.829436 -11.611515 -58.935898 46.697598 -3.401588 5.479880 17.200045 74.809799 -164.571182 -41.432571 -56.861252 4.684271 -1.360724 15.202353 -34.364113 -11.660480 4.070276 7.959062 
-213.365265 119.387115 436.875549 0.000000 -9.997940 0.000000 90.205269 0.356017 94.703918 176.226471 3.569649 -177.479294 -2.026464 -1.432547 -21.786695 -1.252882 1.255658 94.017105 -0.000001 0.003091 21.454554 176.660172 2.292965 147.097015 8.393944 -6.070134 -49.807613 8.901480 -4.089653 86.962273 -0.000017 -0.003103 21.454556 -0.779741 -0.371764 6.799169 -1.570508 -0.719519 3.590503 -1.566128 -0.728856 3.272500 13.175729 -5.104995 10.608904 12.967218 -11.815073 8.307757 -13.418042 -74.590263 -168.266129 6.844292 45.285248 -52.137779 1.887163 -11.567221 -60.588131 46.613754 -3.941059 5.259404 16.994984 74.709312 -164.771774 -43.079205 -57.118053 5.198223 -1.286845 14.544515 -32.936630 -10.890737 3.565370 8.301349 
-213.706345 119.098541 437.773468 0.000000 -10.506104 0.000000 89.894646 0.384027 94.487633 176.302658 3.331002 -176.473648 -2.497276 -1.544246 -21.238342 -1.483581 1.545040 94.361740 -0.000001 0.003091 21.454556 176.576538 1.866805 147.004913 8.881516 -6.082740 -47.453072 8.316397 -4.513258 86.614311 -0.000017 -0.003105 21.454556 -0.861361 -0.314061 6.800724 -1.731944 -0.601621 3.593193 -1.728274 -0.611940 3.275232 12.942736 -5.722085 10.634787 12.443769 -11.455894 8.670945 -14.023065 -74.736237 -167.676147 5.862141 45.055103 -52.194077 1.939348 -11.658531 -61.830303 46.530144 -4.595314 5.006456 17.033895 74.587082 -164.734512 -44.771046 -57.161018 5.594181 -1.216492 13.855020 -31.713015 -10.738211 2.763635 8.592323 
-214.073807 118.858322 438.679779 0.000000 -10.991308 0.000000 89.598701 0.451636 94.255630 176.397339 3.074196 -175.361588 -2.942452 -1.651431 -20.636003 -1.775464 1.812111 94.727058 0.000000 0.003096 21.454556 176.780396 1.463806 147.040939 9.302761 -6.228445 -45.341805 7.463635 -4.937596 86.249916 -0.000019 -0.003111 21.454556 -0.944160 -0.252503 6.813476 -1.895665 -0.475806 3.618065 -1.892754 -0.487114 3.300143 12.678176 -6.201174 10.683587 11.968145 -11.191258 8.921020 -14.545903 -74.869263 -167.166122 5.156105 44.849052 -52.095161 1.982529 -11.841373 -62.642223 46.533260 -5.322444 4.701423 17.364647 74.476242 -164.412689 -46.472832 -57.087566 5.940478 -1.151832 13.178505 -30.672585 -11.109184 1.799333 8.861184 
-214.465576 118.664513 439.595032 0.000000 -11.453875 0.000000 89.335190 0.552880 94.059853 176.526031 2.841951 -174.232071 -3.383217 -1.748034 -20.164619 -2.103152 2.075814 95.219299 0.000002 0.003101 21.454556 177.240952 1.125440 147.190079 9.685232 -6.432267 -43.576759 6.614610 -5.357304 86.329842 -0.000019 -0.003109 21.454556 -1.024922 -0.197074 6.828376 -2.055467 -0.362230 3.647178 -2.053245 -0.374497 3.329289 12.386239 -6.543249 10.826791 11.538335 -10.967854 9.076066 -14.806377 -75.008522 -166.911835 4.593503 44.672909 -51.829475 2.005171 -11.973808 -62.991806 46.629349 -6.047920 4.359449 17.870033 74.389717 -163.920517 -48.250282 -56.950748 6.417522 -1.097517 12.595534 -29.796965 -11.683284 0.792044 9.181622 
-214.879578 118.515160 440.519623 0.000000 -11.894147 0.000000 89.110786 0.646756 93.803154 176.604279 2.556401 -173.137726 -3.786045 -1.780552 -19.781786 -2.459792 2.313945 95.761650 0.000002 0.003101 21.454554 177.933884 0.772206 147.399017 9.888818 -6.655511 -42.277115 5.942275 -5.611280 86.232880 -0.000017 -0.003099 21.454557 -1.094745 -0.125763 6.840609 -2.192861 -0.217247 3.670479 -2.191517 -0.230338 3.352620 12.073466 -6.772017 11.046674 11.139981 -10.744777 9.169357 -14.849085 -75.142128 -166.869934 4.205380 44.542187 -51.462879 2.007400 -12.078126 -62.866333 46.739273 -6.725321 4.025748 18.593527 74.322739 -163.215637 -49.906693 -56.806904 7.031471 -1.053594 12.137078 -29.042933 -12.297547 -0.217848 9.569884 
-215.313766 118.408310 441.453979 0.000000 -12.312480 0.000000 88.928604 0.675747 93.322990 176.471054 2.087944 -172.112183 -4.068738 -1.667547 -19.334549 -2.857546 2.467290 96.182106 0.000001 0.003093 21.454552 178.814423 0.278832 147.589081 9.697272 -6.862284 -41.581032 5.537831 -5.496747 84.804146 -0.000015 -0.003097 21.454556 -1.143708 -0.002134 6.848012 -2.286905 0.031598 3.682878 -2.287055 0.017932 3.365047 11.748405 -6.928908 11.266685 10.751331 -10.499744 9.244619 -14.872900 -75.232536 -166.846512 4.133073 44.474300 -51.105469 1.998828 -12.287842 -62.263721 46.736351 -7.331349 3.766181 19.661636 74.255714 -162.174988 -51.108334 -56.711250 7.685111 -1.018603 11.794865 -28.352154 -12.905016 -1.228654 9.996511 
-215.766098 118.342033 442.398560 0.000000 -12.709242 0.000000 88.831192 0.641585 92.838020 176.013245 1.593700 -171.294952 -4.113096 -1.410967 -19.192814 -3.315192 2.460444 96.670067 -0.000000 0.003085 21.454552 179.615906 -0.131980 147.729599 9.316069 -6.852880 -41.670525 5.487374 -5.184110 83.224442 -0.000015 -0.003102 21.454557 -1.186460 0.131507 6.840343 -2.368242 0.299965 3.664751 -2.370003 0.285794 3.346940 11.415722 -7.047228 11.490323 10.365844 -10.263658 9.347442 -14.845576 -75.248039 -166.873138 4.360137 44.457859 -50.744995 1.977094 -12.589050 -61.142429 46.603554 -7.832891 3.625778 20.875839 74.167473 -160.992386 -51.993439 -56.613350 8.501378 -0.992365 11.567311 -27.691961 -13.342096 -2.083314 10.402219 
-216.234512 118.314362 443.353790 0.000000 -13.084811 0.000000 88.864639 0.573059 92.588936 175.180298 1.235354 -170.802689 -3.833158 -1.037141 -19.761650 -3.852074 2.241756 97.457008 0.000001 0.003089 21.454552 -179.869476 -0.234747 147.847000 9.038092 -6.482569 -42.559376 5.786081 -4.928764 83.068382 -0.000017 -0.003112 21.454559 -1.240588 0.227223 6.812269 -2.473614 0.492428 3.606422 -2.476537 0.477610 3.288625 11.078625 -7.133132 11.734811 9.991235 -10.100012 9.519809 -14.664448 -75.181839 -167.050079 4.777394 44.493114 -50.351376 1.936193 -12.912983 -59.452770 46.357891 -8.207334 3.627432 21.971819 74.024414 -159.926025 -52.764660 -56.414368 9.560024 -0.972590 11.428885 -27.035496 -13.428068 -2.603096 10.718837 
-216.716934 118.323349 444.320160 0.000000 -13.439575 0.000000 89.021164 0.510044 92.219810 174.046646 0.690346 -170.461868 -3.315179 -0.518240 -20.654495 -4.476731 1.863858 98.287521 0.000001 0.003092 21.454552 -179.225327 -0.421594 148.062668 8.769260 -6.085257 -43.500301 5.982397 -4.718386 83.269318 -0.000019 -0.003122 21.454561 -1.291292 0.356069 6.792512 -2.571203 0.751149 3.563858 -2.575689 0.735736 3.246065 10.743450 -7.102372 11.925136 9.664170 -10.108541 9.784613 -14.371101 -75.113937 -167.336456 5.194473 44.675987 -50.044178 1.876740 -13.241669 -57.184155 45.952953 -8.496337 3.749968 22.991175 73.726013 -158.937119 -53.075592 -56.042519 10.416188 -0.948212 11.245021 -26.333073 -13.142288 -2.793304 10.918740 
-217.211319 118.367065 445.298096 0.000000 -13.773924 0.000000 89.277748 0.491021 91.473732 172.757233 -0.251842 -170.137054 -2.689843 0.149788 -21.569115 -5.186872 1.407433 98.903664 -0.000001 0.003085 21.454552 -178.154663 -0.975970 148.458267 8.417439 -5.909204 -43.955204 5.756782 -4.508105 82.921913 -0.000019 -0.003125 21.454557 -1.332437 0.570870 6.806158 -2.646922 1.182139 3.586030 -2.654010 1.166267 3.268215 10.434142 -6.943038 12.001219 9.411839 -10.309048 10.104162 -14.052795 -75.095238 -167.647064 5.439816 45.089840 -49.891769 1.798424 -13.546742 -54.353065 45.332943 -8.759178 3.967390 23.881067 73.266068 -158.077820 -52.712505 -55.520485 10.763530 -0.917291 10.966852 -25.556921 -12.578048 -2.726274 11.020875 
